<svg xmlns:xlink="http://www.w3.org/1999/xlink" xmlns="http://www.w3.org/2000/svg" viewBox="0 0 369.89473684210526 72.45204012047536" preserveAspectRatio="xMidYMid meet" class="css-1j4x1ud" id="aabdfeab" width="369.89473684210526"  height="72.45204012047536" ><defs id="SvgjsDefs1647"></defs><g id="SvgjsG1648" featurekey="symbolFeature-0" transform="matrix(0.8717960736049531,0,0,0.8717960736049531,-13.357668192854566,-24.948057466661467)" fill="#FFFFFF"><g xmlns="http://www.w3.org/2000/svg" fill="#FFFFFF"><path d="M117.599,66.142c-0.039-5.607-0.352-9.998-0.738-9.998c-0.383,0-0.695,4.271-0.74,9.766   c-0.084-0.004-0.158-0.02-0.242-0.02c-1.629-0.871-11.945-1.74-15.639-2.172c-1.738-3.148-5.973-3.91-5.973-3.91   s-0.291-2.992-3.146-2.715c-0.975,0.096-9.994,0.652-12.816,0.867c-2.822,0.219-10.688,6.201-10.688,6.201l1.287-1.873   c-2.473,0.986-5.043,2.623-5.043,2.623s-17.738,0.377-25.184-0.953c-2.662-0.477-10.082-9.25-11.617-10.771   c-1.541-1.52-2.055-1.629-3.498-1.629c-0.793,0-4.793,0-8.24,0c1.773,4.209,5.393,12.85,6.496,15.463l3.008,0.068l-3.477,1.012   c-0.406,0.291-0.754,0.701-0.359,1.133c4.191,4.604,48.275,7.646,60.639,8.719l0.369,4.271c-1.482,0.355-2.607,1.623-2.607,3.213   c0,1.859,1.508,3.363,3.367,3.363c1.857,0,3.365-1.504,3.365-3.363c0-1.506-1.008-2.736-2.377-3.166l0.08-4.141   c0.152,0.01,0.318,0.023,0.451,0.033c5.508,0.361,14.533-0.1,20.906-0.834l0.404,1.883c-0.809,0.252-1.402,0.975-1.402,1.865   c0,1.096,0.887,1.988,1.984,1.988c1.1,0,1.988-0.893,1.988-1.988c0-0.943-0.67-1.693-1.555-1.895l-0.539-1.959   c2.76-0.342,4.922-0.734,5.906-1.129c2.031-1.854,3.33-5.035,3.748-6.172c0.053,0,0.105,0.006,0.16,0.006   c0.082,0,0.156-0.018,0.236-0.02c0.018,5.887,0.344,10.586,0.746,10.586c0.406,0,0.732-4.82,0.744-10.822   c1.961-0.533,3.369-1.762,3.369-1.762S119.562,66.679,117.599,66.142z M79.706,65.981c0,0.734-0.488,0.957-1.01,0.973   c-0.486,0.014-6.949-0.084-8.035-0.191c-1.086-0.109-0.195-1.91,0.146-2.514c0.334-0.59,0.629-0.969,1.816-1.152   c1.414-0.217,5.043-0.201,6.018-0.311c0.975-0.107,1.104,0.258,1.143,1.045C79.8,64.163,79.706,65.194,79.706,65.981z    M84.089,85.437c0,0.738-0.6,1.334-1.332,1.334c-0.734,0-1.334-0.596-1.334-1.334c0-0.736,0.6-1.332,1.334-1.332   C83.489,84.104,84.089,84.7,84.089,85.437z M82.466,67.087c-0.811-0.037-1.035-0.639-1.035-1.152c0-0.516,0-1.605,0-2.34   s0.48-0.99,1.176-0.99l8.145-0.375l0.469,4.9C91.22,67.13,83.731,67.144,82.466,67.087z M99.567,64.938   c-1.844,2.254-5.16,2.145-6.137,2.145l-0.709-5.445c0.537-0.029,0.953-0.506,1.18-1.07l0.008,0.012l0.176,0.033   c0.037,0.008,4.035,0.764,5.643,3.674C99.728,64.286,99.841,64.604,99.567,64.938z M106.169,80.29c0.438,0,0.789,0.354,0.789,0.787   s-0.352,0.789-0.789,0.789c-0.432,0-0.787-0.355-0.787-0.789S105.737,80.29,106.169,80.29z" fill="#FFFFFF"></path></g></g><g id="SvgjsG1649" featurekey="nameFeature-0" transform="matrix(1.9602823170260777,0,0,1.9602823170260777,119.60589374492679,-27.287128133089773)" fill="#FFFFFF"><path d="M8.48 16.64 c0 1.4 -1.2 2.84 -3.32 2.84 c-1.6 0 -3.2 -1 -3.2 -2.76 c0 -1.28 1.16 -2.8 3.44 -2.8 c1.68 0 3.08 1.12 3.08 2.72 z M8.6 23.32 c-0.08 0.36 -0.16 3.16 -0.16 7 l0 5 c0 2.36 -0.12 6.64 -0.6 8.84 c-0.72 3.52 -4.64 6.72 -8.24 6.72 c-1.84 0 -3.48 -0.84 -3.48 -2.4 c0 -0.96 0.84 -2.32 2.04 -2.32 c1.12 0 1.88 0.84 2.24 1.52 c0.48 0.88 0.92 1.12 1.48 1.12 c0.68 0 1.04 -0.8 1.12 -2.32 c0.16 -3.16 0.16 -6.56 0.12 -9.4 l-0.12 -8.04 c-0.04 -1.68 -0.44 -2.04 -2 -2.68 l-0.4 -0.16 c-0.16 -0.08 -0.24 -0.16 -0.24 -0.28 l0 -0.56 c0 -0.12 0.12 -0.24 0.32 -0.32 l6.32 -2.16 c0.52 -0.2 0.92 -0.24 1.2 -0.24 c0.36 0 0.48 0.28 0.4 0.68 z M21.08 40.56 c-2.92 0 -4.92 -0.6 -6.96 -2.92 c-1.52 -1.68 -2.12 -3.8 -2.12 -6.32 c0 -1.8 1 -4.76 3.44 -6.64 c2.04 -1.6 4.08 -2.04 5.96 -2.04 c2.76 0 4.64 0.84 6.44 2.52 c1.96 1.76 2.76 3.92 2.76 6.36 c0 2.32 -1 4.56 -2.56 6.24 c-1.92 2 -4.24 2.8 -6.96 2.8 z M21.32 38.88 c2.2 0 3.2 -3.24 3.2 -7.64 c0 -4.64 -1.6 -6.92 -3.36 -6.92 c-1 0 -1.64 0.28 -2.16 1.08 c-0.8 1.24 -1.32 2.96 -1.32 6.2 c0 2.32 0.2 3.84 1 5.56 c0.52 1.08 1.16 1.72 2.64 1.72 z M53.120000000000005 39 l-5.6 1.4 c-0.24 0.08 -0.52 0.16 -0.88 0.16 c-0.4 0 -0.64 -0.2 -0.68 -0.48 l-0.24 -2.16 l-0.24 0 c-0.8 1.4 -3.12 2.64 -5.28 2.64 c-1.6 0 -2.8 0 -4.2 -1.84 c-1.68 -2.24 -1.52 -3.52 -1.52 -6.96 l0.04 -1.76 c0 -1.52 0 -3.12 -0.04 -4 c-0.04 -0.96 -0.88 -1.32 -1.36 -1.4 c-0.68 -0.12 -0.88 -0.08 -0.88 -0.28 l0 -0.8 c0 -0.24 0.08 -0.32 0.44 -0.32 l5.84 0 c0.24 0 0.4 -0.04 0.56 -0.08 c0.16 0 0.32 -0.04 0.44 -0.04 c0.28 0 0.48 0.2 0.44 0.48 c-0.04 0.36 -0.16 2.24 -0.16 5.4 l0 2.16 c0 1.6 -0.24 4.6 0.76 6.16 c0.6 0.92 1.24 0.84 1.96 0.84 c0.68 0 1.56 -0.52 2.16 -1.28 c0.36 -0.4 0.64 -1.04 0.64 -1.44 l-0.04 -9.4 c0 -1 -0.72 -1.32 -1.72 -1.4 c-0.48 -0.04 -0.68 -0.08 -0.68 -0.28 l0 -0.76 c0 -0.32 0.08 -0.36 0.48 -0.36 l5.96 0 c0.28 0 0.48 -0.04 0.68 -0.08 c0.2 0 0.36 -0.04 0.48 -0.04 c0.24 0 0.4 0.2 0.36 0.4 c-0.04 0.36 -0.24 1.4 -0.24 5.44 l0 2.96 c0 1.92 0 3.88 0.08 4.6 c0.12 1.24 0.56 1.4 0.72 1.4 c0.24 0 0.84 0 1.32 -0.12 c0.32 -0.08 0.44 0 0.48 0.16 l0.12 0.76 c0.04 0.2 -0.04 0.28 -0.2 0.32 z M62.12 29.439999999999998 l0 7.52 c0 1.24 0.4 1.64 1.24 1.64 l1.64 0 c0.24 0 0.28 0.12 0.28 0.36 l0 0.8 c0 0.24 -0.04 0.36 -0.2 0.36 c-0.24 0 -2.08 -0.12 -5.68 -0.12 c-3.08 0 -4.76 0.12 -5 0.12 c-0.16 0 -0.24 -0.08 -0.24 -0.4 l0 -0.76 c0 -0.28 0.08 -0.36 0.44 -0.36 l1.16 0 c0.6 0 0.96 -0.24 1.04 -0.96 c0.08 -1.12 0.08 -2.52 0.08 -4.52 l0 -3.32 c0 -1.72 -0.4 -2.44 -1.6 -3.12 l-0.68 -0.4 c-0.24 -0.12 -0.32 -0.2 -0.32 -0.36 l0 -0.36 c0 -0.16 0.08 -0.24 0.32 -0.32 l5.6 -2.44 c0.24 -0.08 0.4 -0.16 0.64 -0.16 c0.28 0 0.44 0.24 0.48 0.48 l0.36 3.12 l0.28 0 c1.24 -2.64 3 -3.84 4.76 -3.84 c1.2 0 2.12 0.92 2.12 2.32 c0 1.08 -1.24 2.28 -2.56 2.28 c-0.56 0 -1.08 -0.12 -1.44 -0.36 c-0.32 -0.2 -0.68 -0.28 -1 -0.28 c-0.4 0 -0.8 0.2 -1.04 0.72 c-0.52 1.08 -0.68 1.84 -0.68 2.36 z M76.27999999999999 23.12 l0.44 1.72 l0.32 0 c0.44 -0.52 1.16 -1.04 1.92 -1.44 c0.88 -0.48 1.76 -0.76 3.08 -0.76 c1.56 0 3.08 0.16 4.12 1.12 c1.68 1.56 1.8 2.56 1.8 4.56 l0 4.24 c0 1.36 -0.08 3.24 -0.16 4.64 c-0.04 1.2 0.6 1.4 0.96 1.4 l1.08 0 c0.36 0 0.44 0.12 0.44 0.36 l0 0.72 c0 0.28 -0.08 0.44 -0.32 0.44 c-0.28 0 -1.52 -0.12 -4.72 -0.12 c-2.64 0 -3.92 0.12 -4.2 0.12 c-0.24 0 -0.32 -0.12 -0.32 -0.44 l0 -0.72 c0 -0.28 0.12 -0.36 0.52 -0.36 l0.44 0 c0.28 0 0.64 -0.2 0.72 -0.92 c0.16 -1.04 0.24 -2.32 0.24 -4.16 l0 -4.28 c0 -1.52 -0.12 -2.56 -0.96 -3.32 c-0.72 -0.64 -1.28 -0.72 -1.96 -0.72 c-0.72 0 -1.24 0.2 -2.04 0.8 c-0.48 0.36 -0.8 1.44 -0.8 3.08 l-0.08 8.2 c0 0.72 0.28 1.32 0.64 1.32 l0.52 0 c0.32 0 0.4 0.12 0.4 0.4 l0 0.76 c0 0.24 -0.08 0.36 -0.28 0.36 c-0.28 0 -1.36 -0.12 -4 -0.12 c-2.84 0 -4.12 0.12 -4.36 0.12 c-0.2 0 -0.28 -0.12 -0.28 -0.36 l0 -0.8 c0 -0.24 0.08 -0.36 0.4 -0.36 l0.6 0 c0.44 0 1.12 -0.12 1.12 -0.8 l0 -8.88 c0 -1.2 -0.68 -1.88 -1.6 -2.32 l-0.36 -0.16 c-0.24 -0.12 -0.28 -0.28 -0.28 -0.44 l0 -0.36 c0 -0.2 0.16 -0.32 0.36 -0.4 l5.12 -2.32 c0.32 -0.12 0.6 -0.28 0.92 -0.28 c0.24 0 0.48 0.2 0.56 0.48 z M106.47999999999999 30.04 l-9.16 0 l0 1.08 c0 4.16 2.36 6.2 5.28 6.2 c1.96 0 3.56 -0.92 4.36 -2.2 c0.08 -0.2 0.24 -0.24 0.4 -0.12 l0.68 0.36 c0.16 0.08 0.28 0.28 -0.08 0.96 c-0.72 1.48 -3.32 4.24 -7.08 4.24 c-2.56 0 -4.68 -0.44 -6 -1.88 c-2.04 -2.2 -2.72 -3.76 -2.76 -6.88 c0 -1.12 0 -3.24 1.8 -5.88 c1.44 -2.12 3.88 -3.28 6.96 -3.28 c6.48 0 6.84 6.2 6.84 6.84 c0 0.52 -0.36 0.56 -1.24 0.56 z M97.35999999999999 28.52 l3.84 0 c0.88 0 1.28 -0.2 1.28 -0.8 c0 -1.76 -0.72 -3.48 -1.96 -3.48 c-1.88 0 -2.88 1.48 -3.16 4.28 z M110.71999999999998 50.88 c-1.4 0 -2.48 -0.84 -2.48 -2.32 c0 -1.32 0.96 -2.28 1.96 -2.28 c0.56 0 1.12 0.12 1.68 0.44 c0.48 0.32 0.96 0.36 1.28 0.16 c0.4 -0.28 2.48 -4.64 2.96 -6.04 c-0.32 -1.4 -5.32 -13.88 -5.6 -14.52 c-0.4 -1 -0.84 -1.72 -1.4 -1.72 l-0.64 0 c-0.28 0 -0.32 -0.12 -0.32 -0.36 l0 -0.88 c0 -0.16 0.04 -0.28 0.32 -0.28 c0.36 0 1.32 0.12 4.8 0.12 c2.44 0 3.68 -0.12 4.12 -0.12 c0.32 0 0.36 0.12 0.36 0.36 l0 0.84 c0 0.2 -0.04 0.32 -0.24 0.32 l-0.56 0 c-0.44 0 -0.8 0.28 -0.72 0.92 c0.12 0.68 2.36 8.4 2.64 9.28 l0.2 0 c1 -2.28 3.16 -7.84 3.4 -8.6 c0.32 -1.08 -0.2 -1.6 -1 -1.6 l-0.64 0 c-0.24 0 -0.28 -0.12 -0.28 -0.32 l0 -0.88 c0 -0.2 0.04 -0.32 0.24 -0.32 c0.52 0 1.36 0.12 3.6 0.12 c1.68 0 2.6 -0.12 3.04 -0.12 c0.24 0 0.24 0.16 0.24 0.4 l0 0.76 c0 0.24 0 0.36 -0.2 0.36 l-0.44 0 c-0.44 0 -1 0.16 -1.48 0.8 c-0.72 0.96 -3.52 6.92 -6.56 13.48 c-2.04 4.36 -3.76 8.08 -4.52 9.36 c-0.64 1.08 -1.52 2.64 -3.76 2.64 z" fill="#FFFFFF"></path></g></svg>